<svg version="1.1" id="Layer_1" xmlns="http://www.w3.org/2000/svg" xmlns:xlink="http://www.w3.org/1999/xlink" x="0px" y="0px"
	 width="100%" viewBox="0 0 736 736" enable-background="new 0 0 736 736" xml:space="preserve">
<path fill="#000000" opacity="1.000000" stroke="none" 
	d="
M485.000000,737.000000 
	C323.333344,737.000000 162.166672,737.000000 1.000000,737.000000 
	C1.000000,491.666656 1.000000,246.333328 1.000000,1.000000 
	C246.333328,1.000000 491.666656,1.000000 737.000000,1.000000 
	C737.000000,246.333328 737.000000,491.666656 737.000000,737.000000 
	C653.166687,737.000000 569.333313,737.000000 485.000000,737.000000 
M410.445862,191.944565 
	C418.426331,184.763947 428.351532,183.426712 438.393372,183.279755 
	C457.387787,183.001831 476.389526,183.187714 495.387909,183.258255 
	C498.217590,183.268768 500.061890,183.023438 500.125671,179.346176 
	C500.573120,153.545319 501.149994,127.746094 501.854370,101.950958 
	C501.959076,98.117348 500.392212,97.088181 496.911896,96.886047 
	C482.632233,96.056694 468.377167,94.670319 454.088989,94.149544 
	C431.065918,93.310394 408.197571,94.155693 385.813232,100.822739 
	C337.679047,115.159210 306.166779,154.366745 304.244934,204.593628 
	C303.200623,231.885956 303.959229,259.247040 303.879669,286.577026 
	C303.873505,288.691956 303.669830,290.806335 303.533569,293.381226 
	C301.402039,293.381226 299.759857,293.381744 298.117645,293.381134 
	C279.618622,293.374298 261.119629,293.371277 242.620605,293.358276 
	C235.637207,293.353363 235.635101,293.342804 235.634903,300.072876 
	C235.634140,326.238251 235.635651,352.403625 235.634399,378.569000 
	C235.634079,385.203644 235.630844,385.216400 242.039825,385.218842 
	C259.705627,385.225555 277.371399,385.215576 295.037201,385.222321 
	C303.900085,385.225739 303.900146,385.235718 303.900116,393.800964 
	C303.899750,475.130280 303.949585,556.459717 303.780548,637.788696 
	C303.769836,642.939697 305.206604,644.161438 310.216675,644.117920 
	C338.213135,643.874695 366.212860,644.005371 394.211456,644.009277 
	C401.037476,644.010193 401.042603,644.012085 401.042755,637.274353 
	C401.044250,556.445007 401.039124,475.615662 401.064514,394.786316 
	C401.065430,391.854736 401.362274,388.923218 401.534302,385.750336 
	C404.574188,385.548706 407.034637,385.246979 409.495514,385.243591 
	C435.827484,385.207489 462.159576,385.224915 488.491608,385.213440 
	C498.569519,385.209045 498.434418,385.186829 498.867798,374.861725 
	C499.914642,349.920654 501.078156,324.984375 502.244781,300.048523 
	C502.553467,293.450867 502.545959,293.359375 495.860443,293.358612 
	C466.361908,293.355286 436.863373,293.351776 407.364838,293.348419 
	C405.567169,293.348206 403.769531,293.348389 401.950836,293.348389 
	C401.628113,291.715332 401.197906,290.577209 401.209320,289.443542 
	C401.466858,263.802917 401.634857,238.159973 402.155975,212.524307 
	C402.307404,205.074936 404.739990,198.134521 410.445862,191.944565 
z"/>
<path fill="#FEFEFC" opacity="1.000000" stroke="none" 
	d="
M410.190002,192.198608 
	C404.739990,198.134521 402.307404,205.074936 402.155975,212.524307 
	C401.634857,238.159973 401.466858,263.802917 401.209320,289.443542 
	C401.197906,290.577209 401.628113,291.715332 401.950836,293.348389 
	C403.769531,293.348389 405.567169,293.348206 407.364838,293.348419 
	C436.863373,293.351776 466.361908,293.355286 495.860443,293.358612 
	C502.545959,293.359375 502.553467,293.450867 502.244781,300.048523 
	C501.078156,324.984375 499.914642,349.920654 498.867798,374.861725 
	C498.434418,385.186829 498.569519,385.209045 488.491608,385.213440 
	C462.159576,385.224915 435.827484,385.207489 409.495514,385.243591 
	C407.034637,385.246979 404.574188,385.548706 401.534302,385.750336 
	C401.362274,388.923218 401.065430,391.854736 401.064514,394.786316 
	C401.039124,475.615662 401.044250,556.445007 401.042755,637.274353 
	C401.042603,644.012085 401.037476,644.010193 394.211456,644.009277 
	C366.212860,644.005371 338.213135,643.874695 310.216675,644.117920 
	C305.206604,644.161438 303.769836,642.939697 303.780548,637.788696 
	C303.949585,556.459717 303.899750,475.130280 303.900116,393.800964 
	C303.900146,385.235718 303.900085,385.225739 295.037201,385.222321 
	C277.371399,385.215576 259.705627,385.225555 242.039825,385.218842 
	C235.630844,385.216400 235.634079,385.203644 235.634399,378.569000 
	C235.635651,352.403625 235.634140,326.238251 235.634903,300.072876 
	C235.635101,293.342804 235.637207,293.353363 242.620605,293.358276 
	C261.119629,293.371277 279.618622,293.374298 298.117645,293.381134 
	C299.759857,293.381744 301.402039,293.381226 303.533569,293.381226 
	C303.669830,290.806335 303.873505,288.691956 303.879669,286.577026 
	C303.959229,259.247040 303.200623,231.885956 304.244934,204.593628 
	C306.166779,154.366745 337.679047,115.159210 385.813232,100.822739 
	C408.197571,94.155693 431.065918,93.310394 454.088989,94.149544 
	C468.377167,94.670319 482.632233,96.056694 496.911896,96.886047 
	C500.392212,97.088181 501.959076,98.117348 501.854370,101.950958 
	C501.149994,127.746094 500.573120,153.545319 500.125671,179.346176 
	C500.061890,183.023438 498.217590,183.268768 495.387909,183.258255 
	C476.389526,183.187714 457.387787,183.001831 438.393372,183.279755 
	C428.351532,183.426712 418.426331,184.763947 410.190002,192.198608 
z"/>
</svg>