<?xml version="1.0" standalone="no"?>
<!DOCTYPE svg PUBLIC "-//W3C//DTD SVG 20010904//EN"
 "http://www.w3.org/TR/2001/REC-SVG-20010904/DTD/svg10.dtd">
<svg version="1.0" xmlns="http://www.w3.org/2000/svg"
 width="512.000000pt" height="512.000000pt" viewBox="0 0 512.000000 512.000000"
 preserveAspectRatio="xMidYMid meet">
<metadata>
Created by potrace 1.16, written by Peter Selinger 2001-2019
</metadata>
<g transform="translate(0.000000,512.000000) scale(0.100000,-0.100000)"
fill="#000000" stroke="none">
<path d="M2400 4980 c-1065 -65 -1975 -817 -2245 -1855 -57 -220 -70 -331 -70
-615 0 -209 4 -289 18 -380 89 -560 359 -1068 768 -1447 374 -346 819 -559
1339 -640 161 -25 538 -25 700 0 548 85 1022 322 1404 703 196 197 348 409
471 659 172 350 242 640 252 1035 8 316 -26 553 -118 836 -349 1075 -1382
1773 -2519 1704z m1057 -914 c296 -63 548 -282 637 -556 46 -140 47 -158 44
-1050 -4 -950 1 -881 -83 -1056 -107 -222 -287 -372 -540 -451 l-90 -28 -855
0 c-810 0 -859 1 -930 19 -264 68 -466 229 -576 461 -83 176 -78 106 -82 1055
-3 892 -2 910 44 1050 87 269 340 491 627 554 94 21 1706 22 1804 2z"/>
<path d="M1815 3835 c-153 -28 -274 -92 -386 -204 -84 -84 -137 -171 -178
-289 l-26 -77 -3 -725 c-3 -814 -3 -818 67 -965 74 -156 170 -256 322 -335
154 -80 151 -80 949 -80 671 0 709 1 789 20 254 61 456 256 528 511 17 59 18
119 18 819 l0 755 -26 77 c-91 265 -298 445 -569 494 -106 19 -1381 18 -1485
-1z m1771 -300 c141 -83 163 -266 46 -380 -107 -104 -287 -80 -366 49 -34 54
-46 141 -27 198 22 67 94 134 171 159 44 15 128 2 176 -26z m-796 -205 c552
-158 807 -770 524 -1255 -63 -107 -202 -246 -309 -309 -98 -57 -234 -102 -354
-116 -171 -21 -377 24 -536 116 -107 63 -246 202 -309 309 -129 221 -152 501
-60 731 110 278 342 471 644 539 94 21 302 14 400 -15z"/>
<path d="M2398 3104 c-71 -17 -178 -71 -241 -121 -187 -151 -268 -400 -207
-638 69 -268 326 -465 610 -465 284 0 541 197 610 465 74 289 -59 578 -327
714 -35 17 -91 38 -125 46 -78 18 -244 18 -320 -1z"/>
</g>
</svg>
