<?xml version="1.0" standalone="no"?>
<!DOCTYPE svg PUBLIC "-//W3C//DTD SVG 20010904//EN"
 "http://www.w3.org/TR/2001/REC-SVG-20010904/DTD/svg10.dtd">
<svg version="1.0" xmlns="http://www.w3.org/2000/svg"
 width="641.000000pt" height="313.000000pt" viewBox="0 0 641.000000 313.000000"
 preserveAspectRatio="xMidYMid meet">
<metadata>
Created by potrace 1.16, written by Peter Selinger 2001-2019
</metadata>
<g transform="translate(0.000000,313.000000) scale(0.100000,-0.100000)"
fill="#000000" stroke="none">
<path d="M0 1565 l0 -1565 3205 0 3205 0 0 25 0 24 -42 -19 c-38 -17 -67 -20
-250 -20 l-208 0 0 135 0 135 250 0 250 0 0 1425 0 1425 -1856 -2 -1857 -3
-12 -35 c-7 -20 -24 -62 -39 -93 -14 -32 -26 -63 -26 -70 0 -8 -4 -7 -10 3 -8
11 -10 8 -8 -15 1 -17 -2 -37 -7 -45 -6 -8 -10 -17 -11 -20 0 -3 -6 -18 -12
-33 -7 -16 -12 -32 -12 -37 0 -5 -8 -24 -18 -42 -30 -53 -100 -229 -138 -348
-20 -61 -40 -110 -44 -110 -4 0 -10 -22 -14 -49 -7 -55 -11 -57 -116 -63 -47
-3 -55 -1 -54 15 1 9 -2 17 -8 17 -5 0 -7 4 -4 9 4 5 -8 12 -25 16 -24 6 -36
3 -52 -13 l-20 -21 37 -7 c53 -9 32 -24 -44 -31 -44 -4 -61 -3 -56 5 4 6 -4
12 -21 14 -26 3 -26 4 -9 21 10 10 13 17 5 17 -8 0 -8 4 2 16 10 13 10 17 -1
24 -28 17 -38 0 -33 -60 5 -58 5 -59 -24 -65 -15 -3 -41 -10 -56 -15 -24 -7
-26 -6 -17 5 9 11 7 13 -12 9 -13 -2 -17 -2 -10 2 6 3 12 9 12 14 0 13 -39 19
-43 6 -4 -9 -37 52 -37 67 0 8 108 58 129 60 27 2 28 17 0 17 -12 0 -23 8 -26
20 -3 11 -12 20 -19 20 -8 0 -14 5 -14 10 0 6 -9 10 -20 10 -11 0 -20 -4 -20
-10 0 -5 5 -10 10 -10 13 0 13 -27 -1 -35 -6 -4 -16 1 -23 11 -13 16 -14 16
-25 -2 -8 -13 -14 -15 -17 -7 -10 23 -93 -29 -95 -59 0 -7 -4 -3 -10 10 -5 13
-14 20 -19 17 -8 -5 -8 -11 0 -20 12 -15 -3 -31 -19 -21 -16 10 12 66 32 66
15 0 18 5 13 20 -3 11 -9 28 -12 39 -6 20 39 81 52 68 4 -4 2 -13 -4 -19 -27
-27 -5 -71 24 -47 11 9 12 14 4 19 -16 10 37 22 61 15 12 -4 21 -1 25 8 4 11
17 13 48 10 41 -5 43 -4 49 23 4 16 10 40 13 53 6 21 4 23 -11 18 -12 -5 -16
-3 -12 7 3 8 -2 16 -14 19 -25 7 -25 27 0 27 11 0 21 5 23 12 8 24 29 -4 23
-32 -4 -19 -2 -29 9 -33 9 -4 12 -14 9 -26 -3 -12 -1 -21 6 -21 6 0 11 9 11
19 0 11 5 23 10 26 10 6 14 -6 10 -38 -1 -15 4 -17 27 -11 15 3 37 15 48 25
17 17 18 19 2 19 -28 0 -19 20 13 31 17 6 30 15 30 20 0 5 9 9 20 9 27 0 26
-18 -2 -22 -12 -2 -23 -8 -25 -15 -3 -7 9 -7 38 3 23 8 48 13 56 10 7 -3 36
-1 64 5 44 9 48 13 33 23 -16 12 -16 13 0 19 10 4 22 5 27 2 4 -3 20 2 34 11
l26 17 -38 23 c-24 14 -40 19 -44 12 -4 -6 -12 -7 -18 -4 -18 11 -13 26 9 26
11 0 20 5 20 10 0 10 -24 14 -70 12 -24 -1 -24 -1 4 10 35 13 18 28 -32 28
-18 0 -43 5 -55 11 -16 9 -22 9 -25 -1 -3 -8 -15 -23 -28 -35 -13 -12 -24 -28
-24 -35 0 -9 -3 -10 -14 -1 -10 9 -15 8 -19 -3 -4 -11 -21 -15 -57 -14 -56 0
-73 -8 -50 -22 8 -6 11 -10 6 -10 -6 0 -20 10 -33 22 -18 17 -26 19 -35 10
-16 -16 -28 -15 -28 3 0 9 -8 19 -17 23 -23 9 -29 52 -8 52 8 0 15 7 15 15 0
13 -3 13 -20 3 -14 -9 -22 -10 -31 -1 -15 15 7 57 27 49 9 -4 14 2 14 17 0 19
5 22 40 21 l39 -1 -6 46 c-9 67 -18 94 -31 99 -18 6 -12 -71 7 -86 14 -12 13
-13 -9 -8 -14 3 -28 6 -32 6 -4 0 -7 15 -6 33 1 19 -2 39 -6 45 -9 16 4 103
14 97 5 -3 11 4 15 15 7 22 35 28 35 8 0 -7 6 -4 12 6 8 15 8 21 0 24 -7 2
-10 8 -6 13 3 5 -33 9 -86 9 -58 0 -89 -4 -85 -10 3 -5 -3 -10 -15 -10 -12 0
-18 5 -15 10 4 7 -275 10 -829 10 l-836 0 0 -1565z m3316 438 c-3 -21 -8 -59
-12 -85 l-6 -48 -192 0 c-173 0 -194 -2 -224 -20 -66 -40 -72 -63 -72 -274 0
-115 4 -202 11 -221 6 -17 28 -43 49 -58 l38 -27 261 0 261 0 0 -37 c-1 -37
-4 -40 -95 -101 -52 -35 -95 -70 -95 -78 0 -23 22 -108 30 -114 16 -12 71
-149 65 -161 -5 -7 -4 -10 2 -6 6 4 20 -11 32 -35 19 -38 19 -44 5 -59 -12
-13 -13 -22 -5 -36 10 -17 11 -17 17 5 8 26 21 29 26 5 2 -10 -5 -27 -15 -38
-11 -12 -17 -31 -15 -50 3 -26 -4 -35 -51 -71 -30 -23 -61 -40 -68 -37 -8 3
-13 1 -11 -4 5 -15 -57 -63 -81 -63 -12 0 -21 -5 -21 -11 0 -7 -13 -9 -37 -5
-36 6 -37 6 -14 -8 23 -13 23 -14 5 -23 -28 -15 -137 -35 -193 -37 -45 -2 -88
-16 -48 -16 20 0 23 -16 5 -18 -7 -1 -29 -3 -48 -6 -19 -2 -41 1 -48 6 -9 8
-12 5 -10 -13 4 -36 -27 -36 -42 1 -14 33 -25 38 -34 15 -3 -8 -13 -15 -22
-15 -13 0 -14 3 -4 15 10 12 9 15 -4 15 -10 0 -15 4 -11 9 3 5 -6 18 -20 29
-31 25 -31 35 0 52 44 23 30 38 -37 42 -35 1 -64 0 -66 -4 -2 -5 -8 -8 -13 -8
-6 0 -8 4 -5 9 3 5 -10 12 -29 15 -19 4 -35 12 -35 18 0 5 7 8 15 5 8 -4 17
-2 20 3 4 6 -3 10 -14 10 -12 0 -21 5 -21 10 0 6 16 10 36 10 28 0 35 -3 30
-15 -3 -8 -1 -15 4 -15 6 0 10 9 10 20 0 18 -7 20 -70 20 -38 0 -70 4 -70 8 0
4 51 7 114 7 63 -1 121 2 128 6 8 6 2 9 -19 9 -26 0 -30 3 -26 20 4 15 0 20
-16 20 -14 0 -21 -6 -21 -20 0 -15 -7 -20 -25 -20 -14 0 -25 2 -25 4 0 2 9 49
21 104 19 96 19 102 3 127 -13 20 -14 29 -5 38 18 18 13 36 -10 30 -19 -5 -20
-3 -14 29 6 32 4 36 -19 40 -15 3 -27 0 -30 -8 -9 -24 -36 -16 -36 10 0 14 -8
32 -17 42 -17 16 -18 16 -21 1 -2 -11 -13 -17 -33 -17 -16 0 -29 -4 -29 -10 0
-5 -16 -17 -35 -26 -34 -16 -37 -16 -51 2 -8 11 -12 29 -8 44 13 57 10 75 -14
78 -12 2 -20 8 -16 13 3 6 -4 13 -16 16 -13 3 -19 11 -16 19 4 10 -4 14 -27
15 -23 1 -26 3 -9 6 12 2 22 9 22 14 0 6 5 7 10 4 6 -3 10 -1 10 4 0 24 19 9
22 -16 2 -22 8 -28 25 -26 51 6 91 83 43 83 -11 0 -20 7 -20 15 0 23 -56 19
-73 -5 -15 -22 -27 -17 -27 12 0 16 -3 17 -20 8 -12 -6 -30 -8 -40 -5 -15 5
-23 0 -29 -17 -7 -17 -10 -19 -10 -5 -1 9 -6 17 -12 17 -5 0 -7 5 -4 11 4 6
13 8 21 5 8 -3 14 1 14 10 0 11 6 14 16 10 8 -3 24 -1 35 5 16 8 18 13 8 25
-9 11 -7 14 10 14 23 0 24 1 15 24 -3 9 -10 13 -15 10 -5 -3 -12 2 -15 10 -9
24 -24 19 -24 -8 0 -21 -30 -61 -30 -40 0 5 -4 2 -10 -6 -5 -8 -12 -11 -17 -7
-4 5 -1 12 6 16 9 6 12 24 10 54 -2 25 -1 43 2 41 4 -2 10 7 13 21 7 26 42 35
62 15 5 -5 22 -6 39 -2 27 8 28 9 10 19 -17 10 -18 14 -5 54 7 24 24 54 38 66
22 18 24 24 13 37 -10 12 -10 16 -2 16 7 0 10 4 6 9 -3 5 7 22 22 37 16 16 27
32 25 37 -1 5 11 25 28 44 31 35 37 73 13 81 -9 2 -13 -8 -13 -33 0 -32 -2
-36 -15 -25 -8 6 -19 9 -25 5 -5 -3 -10 -4 -10 -1 0 2 -3 11 -6 20 -4 12 0 16
16 16 17 0 20 4 15 20 -4 13 -1 22 8 26 9 3 21 18 27 34 7 16 21 32 31 35 34
11 20 25 -23 25 -32 0 -39 3 -28 10 12 8 10 10 -10 10 -28 0 -54 -14 -56 -30
-1 -5 -2 -14 -3 -20 -2 -14 -29 -12 -34 3 -2 6 -7 -7 -11 -30 -8 -45 -14 -51
-34 -31 -9 9 -12 2 -12 -35 0 -35 -4 -47 -15 -47 -17 0 -20 -26 -4 -36 6 -3 9
-15 6 -25 -3 -12 0 -19 9 -19 21 0 17 -24 -8 -39 l-22 -13 25 -14 c23 -13 22
-13 -26 -15 -30 -1 -39 -4 -22 -6 15 -2 27 -8 27 -13 0 -12 -58 -30 -75 -24
-8 4 -15 1 -15 -6 0 -7 -6 -10 -13 -7 -14 5 -39 -18 -29 -28 4 -4 -11 -4 -33
0 -40 7 -69 30 -59 47 3 5 12 7 20 4 7 -3 18 3 24 13 8 15 5 20 -13 25 -34 9
-49 7 -41 -5 5 -8 -1 -10 -19 -5 -14 3 -27 1 -29 -4 -2 -7 -15 -7 -37 0 -26 7
-37 7 -43 -3 -14 -22 -8 -35 15 -31 20 4 20 4 2 -4 -35 -16 -54 -3 -53 35 1
24 5 32 15 29 7 -3 22 3 33 14 11 11 22 15 25 10 4 -6 13 -10 21 -10 21 0 47
27 38 41 -4 8 -9 7 -15 -2 -5 -8 -6 3 -2 26 3 22 10 46 16 53 6 8 6 12 -1 12
-17 0 -21 73 -5 92 9 9 12 25 8 36 -3 11 -1 23 5 27 5 3 10 24 10 45 0 62 6
69 48 58 20 -5 78 -13 127 -17 50 -5 104 -11 120 -15 17 -4 43 -9 59 -12 21
-5 25 -8 15 -15 -9 -6 0 -8 26 -4 22 2 81 9 130 15 50 6 110 13 135 16 25 3
79 7 120 9 41 2 98 6 125 9 28 3 82 7 120 10 65 5 97 9 265 35 73 12 119 17
168 19 33 2 34 2 28 -35z m499 21 c9 -9 23 -27 32 -40 8 -13 20 -24 25 -24 6
0 27 -13 47 -29 20 -15 41 -26 47 -24 7 2 27 -10 45 -27 40 -37 96 -74 124
-82 11 -3 37 -13 58 -22 22 -10 36 -12 32 -7 -4 7 4 9 22 5 20 -4 34 1 51 16
12 11 26 19 31 15 5 -3 11 0 13 6 2 6 16 12 31 12 15 0 27 3 27 7 0 5 14 11
30 15 17 4 30 12 30 18 0 8 4 7 12 -1 16 -16 28 -15 28 3 0 9 9 15 24 15 13 0
32 3 41 7 14 5 16 2 10 -15 -5 -18 -2 -22 17 -22 22 -1 22 -1 4 -12 -15 -8
-21 -8 -24 0 -4 13 -32 17 -32 5 0 -5 7 -17 15 -27 21 -28 18 -39 -8 -32 -16
4 -26 -1 -35 -15 -12 -19 -11 -20 7 -14 13 4 21 2 21 -5 0 -6 -4 -8 -10 -5 -5
3 -10 1 -10 -5 0 -6 -4 -9 -10 -5 -5 3 -31 8 -59 11 -36 3 -53 0 -64 -11 -18
-17 -43 -20 -52 -5 -9 15 -25 12 -25 -4 0 -8 10 -18 22 -22 28 -8 48 -34 41
-51 -3 -8 3 -13 13 -14 14 0 15 -2 4 -6 -15 -5 -40 -32 -40 -43 0 -4 12 -6 28
-5 15 1 19 0 9 -2 -10 -3 -16 -10 -13 -18 3 -8 -5 -16 -22 -20 -20 -5 -23 -8
-12 -15 8 -5 17 -5 20 0 3 5 11 5 19 1 9 -6 7 -10 -10 -14 -22 -6 -22 -7 -6
-25 9 -10 14 -23 10 -27 -5 -5 1 -3 11 5 15 12 20 12 23 3 3 -7 11 -13 18 -13
8 0 17 -9 20 -20 4 -12 15 -20 28 -20 18 0 19 -2 7 -10 -12 -7 -10 -11 10 -19
14 -5 19 -10 13 -10 -7 -1 -13 -6 -13 -12 0 -5 4 -8 9 -5 5 4 20 2 33 -3 18
-8 19 -10 5 -10 -25 -1 -50 -28 -43 -46 8 -22 24 -18 28 7 3 22 28 39 28 18 0
-6 -4 -8 -10 -5 -5 3 -10 -1 -10 -9 0 -9 4 -15 9 -13 5 1 9 -2 9 -8 0 -5 -4
-9 -9 -8 -5 2 -9 -3 -9 -11 0 -8 -6 -17 -12 -19 -8 -3 -6 -6 5 -6 9 -1 17 3
17 8 0 11 31 24 39 16 3 -3 -1 -11 -9 -16 -12 -8 -11 -9 5 -7 14 3 19 11 18
28 -1 14 1 19 3 12 3 -6 10 -10 15 -6 5 3 17 -2 26 -12 16 -16 16 -16 -7 -10
-14 3 -19 3 -12 0 6 -3 9 -10 6 -16 -4 -6 -1 -9 7 -6 8 2 20 17 27 32 15 29
51 33 60 7 3 -10 0 -12 -11 -8 -9 3 -21 0 -27 -8 -8 -10 -8 -14 2 -18 11 -4
11 -7 0 -18 -10 -11 -15 -11 -20 -2 -9 15 -54 5 -49 -11 2 -6 12 -10 22 -8 10
2 14 -1 10 -8 -4 -6 -16 -8 -27 -4 -17 5 -20 3 -15 -10 4 -10 1 -16 -8 -16 -8
0 -14 -5 -12 -11 1 -6 -4 -14 -10 -16 -7 -3 -13 2 -13 11 0 9 -6 13 -13 10 -8
-3 -24 6 -38 19 -18 18 -30 22 -49 16 -16 -4 -19 -7 -7 -8 9 -1 17 -5 17 -10
0 -5 8 -12 18 -15 9 -3 0 -4 -21 -3 -27 2 -42 -2 -55 -16 -12 -15 -14 -21 -4
-24 19 -7 14 -23 -8 -23 -13 0 -18 -5 -14 -15 4 -10 0 -15 -11 -15 -9 0 -14 4
-10 9 3 6 -6 6 -24 1 -23 -6 -32 -4 -46 13 -12 14 -14 22 -7 25 7 2 12 8 12
13 0 6 -4 8 -9 5 -10 -7 -51 71 -51 97 0 11 -8 17 -22 17 -17 0 -19 3 -10 9
11 7 11 9 -2 14 -16 6 -51 66 -43 73 3 3 28 -4 58 -15 29 -11 55 -19 57 -17 2
2 -6 7 -17 11 -23 7 -27 21 -8 28 6 3 -3 8 -21 12 -43 10 -49 22 -9 19 18 -2
23 -1 12 2 -46 12 -75 27 -75 40 0 8 6 14 13 14 8 0 7 4 -3 10 -13 9 -13 10 0
10 12 1 11 3 -3 11 -9 6 -15 14 -12 20 4 5 1 9 -4 9 -6 0 -11 7 -11 15 0 8 -4
15 -9 15 -4 0 -20 17 -33 38 -52 77 -112 128 -175 150 -24 8 -34 8 -42 -1 -7
-9 5 -20 45 -41 30 -16 53 -34 51 -40 -2 -6 3 -16 12 -23 14 -11 14 -13 -4
-26 -10 -8 -31 -13 -45 -10 -36 6 -56 6 -139 -3 -55 -5 -72 -4 -67 4 4 7 3 12
-3 12 -5 0 -11 -4 -13 -9 -1 -5 -16 -13 -32 -17 -21 -5 -27 -4 -21 5 4 8 2 12
-6 10 -46 -6 -49 -2 -49 74 1 47 6 79 15 91 8 11 15 35 15 53 0 18 8 52 19 76
10 23 19 58 20 77 2 42 15 57 67 75 50 18 50 18 69 -1z m-542 -396 c48 -28 87
-54 87 -58 0 -4 -39 -30 -87 -58 -49 -27 -105 -59 -125 -72 l-38 -22 0 152 0
152 38 -22 c20 -13 76 -45 125 -72z m840 -235 c25 -51 51 -109 57 -130 7 -21
19 -46 28 -56 14 -16 13 -17 -11 -15 -18 2 -27 8 -27 20 0 10 -5 15 -14 12 -7
-3 -21 7 -31 22 -13 20 -19 23 -25 14 -7 -11 -14 -10 -35 4 -18 12 -30 14 -38
8 -14 -12 -67 -4 -67 10 0 6 -7 8 -15 4 -8 -3 -15 -1 -15 4 0 6 -5 10 -11 10
-5 0 -7 -4 -4 -10 3 -5 1 -10 -4 -10 -6 0 -11 7 -11 16 0 8 -5 12 -11 9 -9 -6
-59 38 -59 53 0 17 41 72 50 67 5 -3 12 1 17 8 7 13 53 45 122 88 25 15 27 15
42 -10 9 -15 36 -68 62 -118z m-290 -249 c3 -4 53 -6 110 -5 121 2 177 -14
204 -60 9 -15 19 -26 22 -24 3 2 7 -7 7 -20 1 -16 -2 -22 -12 -18 -8 3 -14 0
-14 -7 0 -6 9 -14 20 -17 22 -6 27 -23 7 -23 -7 0 -30 9 -52 20 -21 11 -41 18
-43 15 -3 -2 -17 2 -33 10 -42 22 -82 86 -44 71 8 -3 15 -1 15 5 0 6 7 6 20
-1 16 -9 18 -8 14 5 -4 8 -17 15 -30 15 -13 0 -24 6 -24 13 0 8 -3 7 -10 -3
-5 -8 -17 -15 -27 -15 -10 0 -17 -6 -15 -14 3 -12 0 -12 -12 -1 -9 7 -42 14
-73 17 -63 4 -88 18 -63 33 18 11 25 12 33 4z m413 -201 c16 -6 16 -7 -2 -14
-17 -6 -16 -8 11 -20 34 -14 40 -16 58 -18 6 0 13 -13 14 -28 1 -16 -2 -21 -7
-13 -4 7 -13 10 -19 6 -7 -5 -9 -1 -4 11 5 14 1 13 -20 -6 -24 -22 -27 -22
-42 -7 -20 20 -29 21 -22 2 9 -23 -17 -50 -42 -43 -21 5 -29 -7 -11 -18 5 -3
0 -17 -12 -30 -17 -20 -24 -22 -36 -13 -11 10 -17 9 -26 -4 -12 -16 -15 -16
-35 -2 -22 16 -81 36 -81 28 0 -3 10 -9 23 -14 16 -6 17 -9 5 -9 -9 -1 -23 5
-30 12 -7 6 -28 20 -47 31 -33 18 -33 18 -22 -2 15 -29 14 -42 -5 -42 -13 0
-14 3 -4 15 10 12 9 16 -4 21 -10 4 -15 13 -11 21 4 12 0 14 -15 10 -11 -3
-20 -1 -20 4 0 5 -8 9 -17 9 -15 0 -16 -2 -3 -10 9 -6 10 -10 3 -10 -17 0 -45
43 -33 50 6 4 8 14 5 23 -15 36 117 58 172 29 22 -12 66 -5 57 9 -12 20 27 19
67 -1 29 -15 52 -20 73 -16 21 4 26 3 16 -3 -8 -6 -11 -13 -7 -17 3 -4 14 -1
23 7 15 12 14 15 -12 25 l-29 12 35 10 c19 6 36 11 37 11 1 1 9 -2 19 -6z
m-1838 -181 c-9 -10 -9 -16 -2 -19 6 -2 8 -17 6 -33 -3 -22 -10 -30 -24 -30
-12 0 -17 -4 -12 -12 4 -7 3 -8 -4 -4 -7 4 -12 20 -12 37 0 16 -4 29 -10 29
-6 0 -10 -33 -10 -80 0 -47 4 -80 10 -80 6 0 10 11 10 25 0 21 5 25 29 25 28
0 29 -1 20 -37 -12 -58 -54 -79 -95 -49 -16 12 -20 30 -24 119 -4 93 -3 107
12 116 22 14 54 14 79 1 15 -9 19 -7 19 5 0 9 5 13 10 10 8 -5 7 -12 -2 -23z
m-580 -10 c15 -20 16 -74 0 -90 -9 -9 -9 -15 0 -24 7 -7 12 -34 12 -60 0 -45
-2 -48 -25 -48 -23 0 -25 4 -25 45 0 25 -4 45 -10 45 -5 0 -10 -20 -10 -45 0
-41 -2 -45 -25 -45 l-25 0 0 119 c0 79 4 121 11 123 24 8 85 -5 97 -20z m219
-1 c18 -23 17 -182 -1 -206 -16 -22 -79 -26 -99 -6 -8 8 -12 45 -12 111 0 88
2 101 20 114 24 17 74 10 92 -13z m-861 -6 c11 -17 14 -34 10 -53 -8 -30 -8
-36 0 -109 6 -52 5 -53 -19 -53 -24 0 -26 4 -29 47 -4 66 -28 70 -28 4 0 -44
-3 -51 -20 -51 -19 0 -20 7 -20 120 l0 120 45 0 c36 0 47 -4 61 -25z m147 -82
c21 -134 21 -133 -3 -133 -13 0 -20 7 -20 20 0 13 -7 20 -19 20 -11 0 -23 -9
-26 -20 -4 -11 -15 -20 -26 -20 -17 0 -20 5 -15 28 3 15 10 63 16 107 15 106
15 105 48 105 28 0 28 0 45 -107z m357 87 c0 -16 -7 -20 -30 -20 -26 0 -30 -3
-30 -29 0 -25 3 -28 25 -23 22 4 25 1 25 -22 0 -21 -5 -26 -25 -26 -21 0 -25
-5 -25 -30 0 -27 3 -30 30 -30 23 0 30 -4 30 -20 0 -18 -7 -20 -55 -20 l-55 0
0 120 0 120 55 0 c48 0 55 -2 55 -20z m3461 -272 c11 -13 38 -58 60 -100 77
-153 132 -185 290 -173 127 10 135 1 102 -127 l-17 -68 -76 0 c-60 1 -72 3
-60 13 31 25 42 45 29 53 -7 4 -9 3 -5 -4 3 -6 2 -13 -4 -17 -20 -12 -10 26
13 49 22 22 23 24 5 35 -56 35 -165 -27 -184 -106 l-7 -25 -499 4 c-329 2
-502 7 -506 14 -4 6 -14 13 -23 16 -23 9 -31 58 -10 64 9 3 30 12 46 19 17 8
73 22 125 31 228 39 366 102 558 258 38 30 72 50 83 48 10 -2 19 1 19 7 0 6
-7 8 -15 5 -8 -4 -15 -2 -15 4 0 28 64 28 91 0z"/>
<path d="M2426 1488 c17 -27 15 -58 -3 -58 -17 -1 -17 -1 -1 -14 21 -15 6 -36
-25 -36 -16 0 -17 -3 -8 -14 9 -11 10 -25 2 -52 -11 -40 -6 -58 13 -51 7 3 19
1 27 -4 11 -7 11 -9 -3 -9 -33 0 -18 -17 16 -18 22 -1 40 6 51 18 10 11 27 20
37 20 16 0 18 5 14 35 -6 33 -4 35 13 25 11 -5 21 -15 23 -21 2 -7 13 -9 27
-4 21 6 21 7 4 21 -10 7 -29 14 -41 14 -15 0 -26 7 -29 20 -8 29 -21 25 -26
-7 -2 -16 -3 -11 -2 10 3 34 1 38 -16 34 -27 -7 -34 10 -9 25 30 19 24 30 -26
56 -26 13 -42 17 -38 10z"/>
<path d="M2560 1261 c0 -6 9 -11 20 -11 11 0 20 -4 20 -9 0 -6 16 -11 36 -13
35 -3 66 -29 52 -44 -4 -3 -28 -7 -54 -9 -25 -2 -53 -10 -62 -19 -22 -21 -7
-33 16 -13 35 32 46 11 12 -25 -15 -16 -17 -25 -8 -35 8 -10 7 -17 -8 -29 -18
-15 -18 -15 4 -10 20 4 23 1 19 -15 -3 -12 0 -19 9 -19 10 0 14 12 14 40 0 22
5 40 10 40 12 0 12 -4 0 -55 -9 -40 2 -71 22 -59 5 3 15 1 23 -6 18 -15 21 -5
21 54 -1 30 -6 51 -13 53 -7 3 -13 -3 -13 -14 0 -15 -2 -16 -10 -3 -15 23 -12
30 10 30 23 0 24 3 8 30 -10 15 -9 22 5 38 9 10 17 24 17 31 0 14 41 31 76 31
13 0 24 5 24 10 0 10 -34 15 -73 12 -10 -1 -16 2 -13 7 8 13 -18 21 -50 15
-44 -8 -78 -8 -96 0 -11 5 -18 4 -18 -3z"/>
<path d="M2601 787 c-5 -12 -7 -26 -5 -32 1 -5 8 -47 15 -92 7 -45 16 -80 19
-78 4 3 8 -7 8 -22 0 -17 8 -33 21 -41 12 -8 21 -25 21 -38 0 -24 4 -26 57
-28 9 -1 17 7 19 17 1 11 6 22 10 25 4 4 4 -1 1 -10 -8 -22 10 -33 28 -18 9 8
11 19 5 41 -7 22 -5 29 5 29 8 0 19 8 24 18 8 16 4 21 -24 32 -19 7 -32 17
-29 22 3 4 0 8 -5 8 -6 0 -11 -4 -11 -10 0 -5 -6 -10 -14 -10 -8 0 -17 -6 -19
-12 -4 -10 -6 -10 -6 0 -1 17 -21 15 -21 -3 0 -10 10 -15 30 -15 23 0 30 -4
30 -20 0 -18 -7 -20 -55 -20 l-55 0 0 119 c0 85 4 121 12 123 7 3 -2 12 -20
21 -32 15 -33 15 -41 -6z"/>
<path d="M1945 3121 c11 -5 14 -10 8 -10 -8 -1 -11 -11 -6 -31 7 -35 -4 -40
-17 -7 -7 18 -9 15 -9 -20 -1 -53 -15 -57 -19 -6 -2 39 -8 50 -18 40 -4 -4 -2
-32 5 -64 7 -39 8 -59 1 -61 -5 -2 -10 -10 -10 -18 0 -8 6 -11 15 -7 9 3 21
-2 28 -11 7 -10 17 -17 22 -16 6 2 27 2 48 1 28 -1 37 -5 37 -18 1 -11 8 -5
18 16 21 41 37 38 36 -6 -1 -26 3 -33 17 -33 11 0 19 -4 19 -10 0 -13 27 -13
35 1 4 6 -2 13 -14 16 -27 7 -27 18 0 20 29 2 37 12 19 23 -13 8 -12 10 3 10
10 0 17 -8 17 -19 0 -11 10 -27 23 -37 13 -10 15 -14 5 -11 -9 3 -21 0 -28 -7
-8 -11 -5 -15 16 -20 20 -5 23 -10 15 -20 -11 -13 -6 -46 7 -46 3 0 14 7 24
16 16 16 18 15 27 -7 5 -13 10 -20 10 -15 1 5 8 3 16 -4 16 -13 45 -7 45 10 0
6 -10 8 -26 4 -20 -5 -26 -2 -31 15 -3 11 -8 21 -12 21 -4 0 -7 16 -7 35 0 24
5 35 14 35 9 0 13 -7 9 -19 -3 -13 3 -22 20 -30 31 -14 36 -14 27 1 -4 7 -9
22 -10 35 -2 18 2 22 19 20 16 -1 23 4 25 22 3 17 0 21 -10 15 -10 -6 -9 -3 1
10 13 15 13 19 0 26 -11 7 -11 14 -3 27 9 14 8 21 -2 31 -16 15 -50 16 -59 2
-4 -7 -13 -7 -26 0 -30 16 -15 28 46 35 30 4 55 11 55 16 0 5 -6 9 -12 9 -20
1 24 30 44 30 10 0 18 -4 18 -10 0 -5 -4 -10 -10 -10 -5 0 -10 -7 -10 -16 0
-14 3 -14 15 -4 8 7 15 9 15 4 0 -4 5 -3 12 4 7 7 20 12 30 12 10 0 18 7 18
15 0 11 -10 16 -32 16 -18 0 -145 2 -283 4 -155 3 -242 1 -230 -4z"/>
<path d="M2235 2500 c-16 -4 -25 -8 -20 -9 6 -1 1 -8 -10 -17 -11 -8 -21 -19
-21 -24 -1 -6 -2 -15 -3 -21 -1 -7 -13 -8 -32 -4 -29 7 -31 5 -26 -14 4 -15 0
-21 -11 -21 -10 0 -13 -3 -7 -8 6 -4 11 -14 13 -22 2 -8 11 -23 20 -33 15 -17
15 -19 -1 -28 -23 -14 -22 -39 3 -39 22 0 27 16 8 23 -7 2 2 4 20 3 23 0 32
-6 32 -18 0 -9 -6 -18 -12 -21 -7 -2 -10 -8 -6 -12 10 -11 35 18 30 35 -3 8
-11 23 -19 32 -9 10 -12 25 -8 37 4 13 0 23 -11 29 -26 14 -5 42 24 31 12 -5
22 -12 22 -17 0 -4 18 -8 40 -9 23 -1 40 3 40 9 0 7 5 6 15 -2 27 -22 18 11
-11 41 -23 24 -25 32 -16 56 11 32 2 36 -53 23z"/>
</g>
</svg>
