<svg version="1.1" id="Layer_1" xmlns="http://www.w3.org/2000/svg" xmlns:xlink="http://www.w3.org/1999/xlink" x="0px" y="0px"
	 width="100%" viewBox="0 0 1900 1069" enable-background="new 0 0 1900 1069" xml:space="preserve">
<path fill="#000000" opacity="1.000000" stroke="none" 
	d="
M1369.000000,1070.000000 
	C912.666748,1070.000000 456.833496,1070.000000 1.000183,1070.000000 
	C1.000122,713.666809 1.000122,357.333618 1.000061,1.000327 
	C634.333069,1.000218 1267.666138,1.000218 1900.999512,1.000109 
	C1900.999634,357.333008 1900.999634,713.666016 1900.999756,1069.999512 
	C1723.833374,1070.000000 1546.666626,1070.000000 1369.000000,1070.000000 
M1152.500000,972.818848 
	C1222.747437,972.818848 1292.994995,972.818848 1363.922363,972.818848 
	C1363.162231,971.345642 1362.824219,970.480286 1362.313843,969.732544 
	C1354.430298,958.184875 1346.531372,946.647766 1338.622437,935.117493 
	C1310.574951,894.227661 1282.504761,853.353333 1254.476807,812.450073 
	C1232.652588,780.600342 1210.913818,748.691956 1189.072754,716.853699 
	C1160.359741,674.997925 1131.577148,633.189880 1102.837036,591.352722 
	C1079.095947,556.792847 1055.413086,522.192810 1031.566406,487.706085 
	C1029.665771,484.957489 1029.759766,483.409332 1031.902466,480.922882 
	C1060.154785,448.137054 1088.267456,415.230865 1116.464600,382.397461 
	C1148.126465,345.529846 1179.853638,308.718506 1211.524780,271.858948 
	C1246.993774,230.579468 1282.432861,189.274399 1317.882080,147.978043 
	C1324.117065,140.714600 1330.338623,133.439590 1337.249146,125.372963 
	C1334.708862,125.231033 1333.131958,125.067291 1331.555176,125.066307 
	C1311.888672,125.053986 1292.212646,125.414162 1272.561279,124.872040 
	C1266.109863,124.694061 1262.235962,127.005394 1258.314209,131.605820 
	C1218.035400,178.854248 1177.630249,225.995224 1137.196533,273.111298 
	C1096.757080,320.234070 1056.246704,367.295959 1015.762695,414.380371 
	C1009.505859,421.657227 1003.223572,428.912170 996.632812,436.548279 
	C994.787354,433.936310 993.331543,431.928619 991.930054,429.883759 
	C982.808777,416.575928 973.712280,403.251007 964.583435,389.948364 
	C932.847107,343.701752 901.089417,297.469757 869.361755,251.217194 
	C841.594116,210.737640 813.840942,170.248108 786.135315,129.726166 
	C784.057251,126.686928 781.966370,124.891113 777.796021,124.899124 
	C698.963745,125.050644 620.131104,125.008354 541.298523,125.025085 
	C539.916321,125.025383 538.534058,125.254440 536.358887,125.446922 
	C543.874756,136.434494 550.870056,146.686142 557.890747,156.920380 
	C594.139099,209.760468 630.403503,262.589539 666.643860,315.435150 
	C700.994873,365.525818 735.319519,415.634613 769.662537,465.730804 
	C798.445007,507.716003 827.172607,549.739258 856.135559,591.599609 
	C858.733704,595.354797 858.565369,597.506165 855.701111,600.816345 
	C831.197998,629.134094 806.879517,657.611572 782.465881,686.006836 
	C754.142944,718.948914 725.751404,751.832031 697.439636,784.783691 
	C649.932190,840.076843 602.462952,895.402832 554.981750,950.718628 
	C548.968567,957.724121 542.980957,964.751526 536.584595,972.232971 
	C537.903137,972.563782 538.491394,972.840088 539.079773,972.840271 
	C561.579163,972.847839 584.079163,972.896912 606.576782,972.688904 
	C608.379333,972.672241 610.630310,971.265137 611.888123,969.820679 
	C627.074402,952.381531 642.132385,934.830444 657.186218,917.276245 
	C701.391602,865.728394 745.574402,814.161133 789.776978,762.610901 
	C817.843628,729.878723 845.920959,697.155701 874.014526,664.446594 
	C879.807678,657.701782 885.694458,651.037476 891.810486,644.023621 
	C892.894226,645.417786 893.628540,646.268005 894.260132,647.188660 
	C914.031372,676.011658 933.778748,704.850952 953.558838,733.667908 
	C981.437317,774.283447 1009.342407,814.880737 1037.229370,855.490356 
	C1063.316528,893.478943 1089.356323,931.500244 1115.598389,969.381409 
	C1116.826416,971.153931 1119.794067,972.584106 1122.005737,972.663574 
	C1131.826294,973.016235 1141.666748,972.817871 1152.500000,972.818848 
z"/>
<path fill="#FCFCFC" opacity="1.000000" stroke="none" 
	d="
M1152.000000,972.818848 
	C1141.666748,972.817871 1131.826294,973.016235 1122.005737,972.663574 
	C1119.794067,972.584106 1116.826416,971.153931 1115.598389,969.381409 
	C1089.356323,931.500244 1063.316528,893.478943 1037.229370,855.490356 
	C1009.342407,814.880737 981.437317,774.283447 953.558838,733.667908 
	C933.778748,704.850952 914.031372,676.011658 894.260132,647.188660 
	C893.628540,646.268005 892.894226,645.417786 891.810486,644.023621 
	C885.694458,651.037476 879.807678,657.701782 874.014526,664.446594 
	C845.920959,697.155701 817.843628,729.878723 789.776978,762.610901 
	C745.574402,814.161133 701.391602,865.728394 657.186218,917.276245 
	C642.132385,934.830444 627.074402,952.381531 611.888123,969.820679 
	C610.630310,971.265137 608.379333,972.672241 606.576782,972.688904 
	C584.079163,972.896912 561.579163,972.847839 539.079773,972.840271 
	C538.491394,972.840088 537.903137,972.563782 536.584595,972.232971 
	C542.980957,964.751526 548.968567,957.724121 554.981750,950.718628 
	C602.462952,895.402832 649.932190,840.076843 697.439636,784.783691 
	C725.751404,751.832031 754.142944,718.948914 782.465881,686.006836 
	C806.879517,657.611572 831.197998,629.134094 855.701111,600.816345 
	C858.565369,597.506165 858.733704,595.354797 856.135559,591.599609 
	C827.172607,549.739258 798.445007,507.716003 769.662537,465.730804 
	C735.319519,415.634613 700.994873,365.525818 666.643860,315.435150 
	C630.403503,262.589539 594.139099,209.760468 557.890747,156.920380 
	C550.870056,146.686142 543.874756,136.434494 536.358887,125.446922 
	C538.534058,125.254440 539.916321,125.025383 541.298523,125.025085 
	C620.131104,125.008354 698.963745,125.050644 777.796021,124.899124 
	C781.966370,124.891113 784.057251,126.686928 786.135315,129.726166 
	C813.840942,170.248108 841.594116,210.737640 869.361755,251.217194 
	C901.089417,297.469757 932.847107,343.701752 964.583435,389.948364 
	C973.712280,403.251007 982.808777,416.575928 991.930054,429.883759 
	C993.331543,431.928619 994.787354,433.936310 996.632812,436.548279 
	C1003.223572,428.912170 1009.505859,421.657227 1015.762695,414.380371 
	C1056.246704,367.295959 1096.757080,320.234070 1137.196533,273.111298 
	C1177.630249,225.995224 1218.035400,178.854248 1258.314209,131.605820 
	C1262.235962,127.005394 1266.109863,124.694061 1272.561279,124.872040 
	C1292.212646,125.414162 1311.888672,125.053986 1331.555176,125.066307 
	C1333.131958,125.067291 1334.708862,125.231033 1337.249146,125.372963 
	C1330.338623,133.439590 1324.117065,140.714600 1317.882080,147.978043 
	C1282.432861,189.274399 1246.993774,230.579468 1211.524780,271.858948 
	C1179.853638,308.718506 1148.126465,345.529846 1116.464600,382.397461 
	C1088.267456,415.230865 1060.154785,448.137054 1031.902466,480.922882 
	C1029.759766,483.409332 1029.665771,484.957489 1031.566406,487.706085 
	C1055.413086,522.192810 1079.095947,556.792847 1102.837036,591.352722 
	C1131.577148,633.189880 1160.359741,674.997925 1189.072754,716.853699 
	C1210.913818,748.691956 1232.652588,780.600342 1254.476807,812.450073 
	C1282.504761,853.353333 1310.574951,894.227661 1338.622437,935.117493 
	C1346.531372,946.647766 1354.430298,958.184875 1362.313843,969.732544 
	C1362.824219,970.480286 1363.162231,971.345642 1363.922363,972.818848 
	C1292.994995,972.818848 1222.747437,972.818848 1152.000000,972.818848 
M1148.423462,754.116028 
	C1125.745972,721.647583 1103.067017,689.180115 1080.391357,656.710388 
	C1045.142578,606.237061 1009.912781,555.750549 974.643738,505.291412 
	C943.757751,461.102997 912.788391,416.972778 881.928528,372.766144 
	C837.940063,309.752930 794.041260,246.677048 749.947693,183.737534 
	C748.706848,181.966446 745.694275,180.490158 743.498047,180.476562 
	C709.507263,180.265945 675.514954,180.320435 641.522949,180.313614 
	C639.950989,180.313293 638.379028,180.313583 635.786133,180.313583 
	C645.429382,194.122574 654.350220,206.895096 663.268982,219.669067 
	C695.935242,266.455597 728.612366,313.234528 761.263306,360.031799 
	C792.672119,405.048950 824.040039,450.094727 855.451172,495.110291 
	C881.819702,532.899048 908.230896,570.657898 934.611877,608.437927 
	C960.893311,646.075439 987.153076,683.728027 1013.436096,721.364380 
	C1040.194946,759.682190 1066.972778,797.986816 1093.738037,836.300171 
	C1112.400513,863.014709 1131.099365,889.704163 1149.646851,916.498291 
	C1151.490234,919.161133 1153.408936,920.080872 1156.572388,920.071350 
	C1190.730591,919.969055 1224.889404,920.016418 1259.047974,920.001160 
	C1260.392944,920.000549 1261.737915,919.781433 1263.736328,919.607117 
	C1251.430542,901.929199 1239.664917,885.014832 1227.886353,868.109436 
	C1201.545288,830.302917 1175.197876,792.500793 1148.423462,754.116028 
z"/>
<path fill="#020202" opacity="1.000000" stroke="none" 
	d="
M1148.638184,754.406494 
	C1175.197876,792.500793 1201.545288,830.302917 1227.886353,868.109436 
	C1239.664917,885.014832 1251.430542,901.929199 1263.736328,919.607117 
	C1261.737915,919.781433 1260.392944,920.000549 1259.047974,920.001160 
	C1224.889404,920.016418 1190.730591,919.969055 1156.572388,920.071350 
	C1153.408936,920.080872 1151.490234,919.161133 1149.646851,916.498291 
	C1131.099365,889.704163 1112.400513,863.014709 1093.738037,836.300171 
	C1066.972778,797.986816 1040.194946,759.682190 1013.436096,721.364380 
	C987.153076,683.728027 960.893311,646.075439 934.611877,608.437927 
	C908.230896,570.657898 881.819702,532.899048 855.451172,495.110291 
	C824.040039,450.094727 792.672119,405.048950 761.263306,360.031799 
	C728.612366,313.234528 695.935242,266.455597 663.268982,219.669067 
	C654.350220,206.895096 645.429382,194.122574 635.786133,180.313583 
	C638.379028,180.313583 639.950989,180.313293 641.522949,180.313614 
	C675.514954,180.320435 709.507263,180.265945 743.498047,180.476562 
	C745.694275,180.490158 748.706848,181.966446 749.947693,183.737534 
	C794.041260,246.677048 837.940063,309.752930 881.928528,372.766144 
	C912.788391,416.972778 943.757751,461.102997 974.643738,505.291412 
	C1009.912781,555.750549 1045.142578,606.237061 1080.391357,656.710388 
	C1103.067017,689.180115 1125.745972,721.647583 1148.638184,754.406494 
z"/>
</svg>